<mxfile host="65bd71144e">
    <diagram id="XAZssRx8YIH9e5BkyWsl" name="第 1 页">
        <mxGraphModel dx="3042" dy="797" grid="1" gridSize="10" guides="1" tooltips="1" connect="1" arrows="1" fold="1" page="1" pageScale="1" pageWidth="827" pageHeight="1169" math="0" shadow="0">
            <root>
                <mxCell id="0"/>
                <mxCell id="1" parent="0"/>
                <mxCell id="LnrfKWXW1_7QK9XkgKNR-47" value="" style="rounded=1;whiteSpace=wrap;html=1;fillColor=#dae8fc;strokeColor=none;" parent="1" vertex="1">
                    <mxGeometry x="-720" y="330" width="510" height="80" as="geometry"/>
                </mxCell>
                <mxCell id="LnrfKWXW1_7QK9XkgKNR-14" value="" style="rounded=1;whiteSpace=wrap;html=1;fillColor=#dae8fc;strokeColor=none;" parent="1" vertex="1">
                    <mxGeometry x="-720" y="40" width="510" height="70" as="geometry"/>
                </mxCell>
                <mxCell id="PrDm2Zr-NET8_9OV9A78-44" value="账号初始化" style="ellipse;whiteSpace=wrap;html=1;rounded=1;" parent="1" vertex="1">
                    <mxGeometry x="1790" y="20" width="120" height="80" as="geometry"/>
                </mxCell>
                <mxCell id="LnrfKWXW1_7QK9XkgKNR-4" value="rocksdb" style="rounded=1;whiteSpace=wrap;html=1;fillColor=#1ba1e2;strokeColor=none;fontColor=#ffffff;shadow=1;" parent="1" vertex="1">
                    <mxGeometry x="-660" y="345" width="110" height="50" as="geometry"/>
                </mxCell>
                <mxCell id="LnrfKWXW1_7QK9XkgKNR-18" value="web ui" style="rounded=1;whiteSpace=wrap;html=1;fillColor=#0050ef;fontColor=#ffffff;strokeColor=#001DBC;shadow=1;glass=0;" parent="1" vertex="1">
                    <mxGeometry x="-670" y="55" width="120" height="40" as="geometry"/>
                </mxCell>
                <mxCell id="LnrfKWXW1_7QK9XkgKNR-19" value="sdk/ rest api" style="rounded=1;whiteSpace=wrap;html=1;strokeColor=#001DBC;shadow=1;fillColor=#0050ef;fontColor=#ffffff;" parent="1" vertex="1">
                    <mxGeometry x="-390" y="55" width="110" height="40" as="geometry"/>
                </mxCell>
                <mxCell id="LnrfKWXW1_7QK9XkgKNR-20" value="" style="rounded=1;whiteSpace=wrap;html=1;fillColor=#dae8fc;strokeColor=none;" parent="1" vertex="1">
                    <mxGeometry x="-720" y="120" width="510" height="200" as="geometry"/>
                </mxCell>
                <mxCell id="LnrfKWXW1_7QK9XkgKNR-29" value="" style="group;rounded=1;" parent="1" vertex="1" connectable="0">
                    <mxGeometry x="-570" y="150" width="210" height="140" as="geometry"/>
                </mxCell>
                <mxCell id="LnrfKWXW1_7QK9XkgKNR-27" value="" style="group;rounded=1;" parent="LnrfKWXW1_7QK9XkgKNR-29" vertex="1" connectable="0">
                    <mxGeometry y="30" width="210" height="110" as="geometry"/>
                </mxCell>
                <mxCell id="LnrfKWXW1_7QK9XkgKNR-23" value="" style="rounded=1;whiteSpace=wrap;html=1;strokeColor=default;shadow=0;dashed=1;" parent="LnrfKWXW1_7QK9XkgKNR-27" vertex="1">
                    <mxGeometry y="-30" width="210" height="140" as="geometry"/>
                </mxCell>
                <mxCell id="LnrfKWXW1_7QK9XkgKNR-21" value="id生成器" style="rounded=1;whiteSpace=wrap;html=1;fillColor=#1ba1e2;strokeColor=none;shadow=0;glass=0;fontColor=#ffffff;" parent="LnrfKWXW1_7QK9XkgKNR-27" vertex="1">
                    <mxGeometry x="10" y="10" width="90" height="40" as="geometry"/>
                </mxCell>
                <mxCell id="LnrfKWXW1_7QK9XkgKNR-24" value="id生成器" style="rounded=1;whiteSpace=wrap;html=1;fillColor=#1ba1e2;strokeColor=none;shadow=0;glass=0;fontColor=#ffffff;" parent="LnrfKWXW1_7QK9XkgKNR-27" vertex="1">
                    <mxGeometry x="107" y="10" width="90" height="40" as="geometry"/>
                </mxCell>
                <mxCell id="LnrfKWXW1_7QK9XkgKNR-25" value="id生成器" style="rounded=1;whiteSpace=wrap;html=1;fillColor=#1ba1e2;strokeColor=none;shadow=0;glass=0;fontColor=#ffffff;" parent="LnrfKWXW1_7QK9XkgKNR-27" vertex="1">
                    <mxGeometry x="10" y="60" width="90" height="40" as="geometry"/>
                </mxCell>
                <mxCell id="LnrfKWXW1_7QK9XkgKNR-26" value="id生成器" style="rounded=1;whiteSpace=wrap;html=1;fillColor=#1ba1e2;strokeColor=none;shadow=0;glass=0;fontColor=#ffffff;" parent="LnrfKWXW1_7QK9XkgKNR-27" vertex="1">
                    <mxGeometry x="107" y="60" width="90" height="40" as="geometry"/>
                </mxCell>
                <mxCell id="LnrfKWXW1_7QK9XkgKNR-28" value="业务集群" style="text;html=1;strokeColor=none;fillColor=none;align=center;verticalAlign=middle;whiteSpace=wrap;rounded=1;" parent="LnrfKWXW1_7QK9XkgKNR-29" vertex="1">
                    <mxGeometry x="75" width="60" height="30" as="geometry"/>
                </mxCell>
                <mxCell id="LnrfKWXW1_7QK9XkgKNR-30" value="" style="rounded=1;whiteSpace=wrap;html=1;dashed=1;" parent="1" vertex="1">
                    <mxGeometry x="-350" y="150" width="120" height="140" as="geometry"/>
                </mxCell>
                <mxCell id="LnrfKWXW1_7QK9XkgKNR-31" value="" style="rounded=1;whiteSpace=wrap;html=1;dashed=1;" parent="1" vertex="1">
                    <mxGeometry x="-700" y="150" width="120" height="140" as="geometry"/>
                </mxCell>
                <mxCell id="LnrfKWXW1_7QK9XkgKNR-32" value="治理&amp;amp;配置" style="text;html=1;strokeColor=none;fillColor=none;align=center;verticalAlign=middle;whiteSpace=wrap;rounded=1;" parent="1" vertex="1">
                    <mxGeometry x="-320" y="150" width="60" height="30" as="geometry"/>
                </mxCell>
                <mxCell id="LnrfKWXW1_7QK9XkgKNR-42" value="consul" style="rounded=1;whiteSpace=wrap;html=1;fillColor=#e1d5e7;strokeColor=none;shadow=0;glass=0;" parent="1" vertex="1">
                    <mxGeometry x="-335" y="190" width="90" height="40" as="geometry"/>
                </mxCell>
                <mxCell id="LnrfKWXW1_7QK9XkgKNR-43" value="config" style="rounded=1;whiteSpace=wrap;html=1;fillColor=#e1d5e7;strokeColor=none;shadow=0;glass=0;" parent="1" vertex="1">
                    <mxGeometry x="-335" y="240" width="90" height="40" as="geometry"/>
                </mxCell>
                <mxCell id="LnrfKWXW1_7QK9XkgKNR-44" value="监控/统计" style="text;html=1;strokeColor=none;fillColor=none;align=center;verticalAlign=middle;whiteSpace=wrap;rounded=1;" parent="1" vertex="1">
                    <mxGeometry x="-670" y="150" width="60" height="30" as="geometry"/>
                </mxCell>
                <mxCell id="LnrfKWXW1_7QK9XkgKNR-45" value="prometheus" style="rounded=1;whiteSpace=wrap;html=1;fillColor=#d5e8d4;strokeColor=#82b366;shadow=0;glass=0;" parent="1" vertex="1">
                    <mxGeometry x="-685" y="190" width="90" height="40" as="geometry"/>
                </mxCell>
                <mxCell id="LnrfKWXW1_7QK9XkgKNR-46" value="redis" style="rounded=1;whiteSpace=wrap;html=1;fillColor=#d5e8d4;strokeColor=#82b366;shadow=0;glass=0;" parent="1" vertex="1">
                    <mxGeometry x="-685" y="240" width="90" height="40" as="geometry"/>
                </mxCell>
                <mxCell id="LnrfKWXW1_7QK9XkgKNR-48" value="redis" style="rounded=1;whiteSpace=wrap;html=1;fillColor=#d80073;strokeColor=#A50040;shadow=1;fontColor=#ffffff;" parent="1" vertex="1">
                    <mxGeometry x="-394" y="344" width="110" height="50" as="geometry"/>
                </mxCell>
                <mxCell id="LnrfKWXW1_7QK9XkgKNR-49" value="接入层" style="rounded=1;whiteSpace=wrap;html=1;fillColor=#099E31;strokeColor=none;fontColor=#ffffff;" parent="1" vertex="1">
                    <mxGeometry x="-828" y="40" width="98" height="70" as="geometry"/>
                </mxCell>
                <mxCell id="LnrfKWXW1_7QK9XkgKNR-50" value="服务层" style="rounded=1;whiteSpace=wrap;html=1;fillColor=#099E31;strokeColor=none;fontColor=#ffffff;" parent="1" vertex="1">
                    <mxGeometry x="-828" y="118" width="98" height="202" as="geometry"/>
                </mxCell>
                <mxCell id="LnrfKWXW1_7QK9XkgKNR-51" value="数据层" style="rounded=1;whiteSpace=wrap;html=1;fillColor=#099E31;strokeColor=none;fontColor=#ffffff;" parent="1" vertex="1">
                    <mxGeometry x="-828" y="330" width="98" height="80" as="geometry"/>
                </mxCell>
            </root>
        </mxGraphModel>
    </diagram>
</mxfile>